# xmcd
#
# Track frame offsets: 
#        150
#        22058
#        45918
#        68056
#        81085
#        108318
#        132229
#        153524
#
# Disc length: 2489 seconds
#
# Revision: 1
# Processed by: cddbd v1.5.2PL0 Copyright (c) Steve Scherf et al.
# Submitted via: ExactAudioCopy v1.3
#
DISCID=5e09b708
DTITLE=Bill Evans - The Very Best Of
DYEAR=2006
DGENRE=Jazz
TTITLE0=Waltz for Debby
TTITLE1=What are you doing for the rest of your life?
TTITLE2=Twelve tone tune
TTITLE3=Someday my prince will come
TTITLE4=Nardis
TTITLE5=Time remembered
TTITLE6=Stella by starlight
TTITLE7='Round midnight
EXTD=
EXTT0=
EXTT1=
EXTT2=
EXTT3=
EXTT4=
EXTT5=
EXTT6=
EXTT7=
PLAYORDER=
